# xmcd
#
# Track frame offsets: 
#        150
#        24248
#        49921
#        67211
#        96113
#        113963
#        127098
#        145188
#        160975
#        186928
#        207007
#
# Disc length: 2980 seconds
#
# Revision: 1
# Processed by: cddbd v1.5.2PL0 Copyright (c) Steve Scherf et al.
# Submitted via: ExactAudioCopyFreeDBPlugin 1.0
#
DISCID=a10ba20b
DTITLE=West Side Horns - San Quilmas
DYEAR=2003
DGENRE=Blues
TTITLE0=Rainbow Riot
TTITLE1=(2027)
TTITLE2=Funky Mama
TTITLE3=Hit'n The Jug
TTITLE4=Sun Is Shining
TTITLE5=You Got Me Dizzy
TTITLE6=High Rise
TTITLE7=You Don't Have To Go
TTITLE8=Alligator Bogaloo
TTITLE9=Blue Greens N Beans
TTITLE10=Mercy, Mercy, Mercy
EXTD=
EXTT0=
EXTT1=
EXTT2=
EXTT3=
EXTT4=
EXTT5=
EXTT6=
EXTT7=
EXTT8=
EXTT9=
EXTT10=
PLAYORDER=
